# xmcd
#
# Track frame offsets:
#	150
#	14622
#	32867
#	54682
#	72657
#	90237
#	101875
#	120847
#	134445
#	153885
#	170680
#	184552
#	196442
#	208197
#	226335
#	241410
#	254267
#	268755
#	282095
#	294875
#
# Disc length: 4089
#
# Revision: 3
# Processed by: cddbd v1.5.1PL0 Copyright (c) Steve Scherf et al.
# Submitted via: ExactAudioCopy v0.90b4
# Normalized: r2:DSETVAR1,TDELIM( - )
#
DISCID=230ff714
DTITLE=Various Artist - Country North - Disk 1
DYEAR=1993
DGENRE=Country
TTITLE0=It comes back to you - Cassandra Vasik
TTITLE1=One good reason - Joel Feeney and Western Front
TTITLE2=The lonesome kind - Mark Koenig
TTITLE3=Drifting cowboy - Gary Fjellgaard
TTITLE4=The rhythm of romance - Michelle wright
TTITLE5=Can't you just stay gone - Anita Perras
TTITLE6=Navajo rug - Tom Russell with Ian Tyson
TTITLE7=You're still in those crazy arms - Larry Mercey
TTITLE8=Just can't let go - Joan Kennedy
TTITLE9=When you're not loving me - Tracy prescott and Lonesome daddy
TTITLE10=Ten little fingers - Carroll Baker
TTITLE11=Stealer of hearts - Ronnie Prophet
TTITLE12=Countryfied - Dick Damron
TTITLE13=Paper Rosie - Dallas Harms
TTITLE14=Blue Moon Cafe - Albert hall
TTITLE15=Sweet Dreams of yesterday - Hank Smith
TTITLE16=The bottom line - Jack Diamond
TTITLE17=Sparkle in her eyes - Terry Carisse
TTITLE18=Big fool for lovin' you - Eddie Eastman
TTITLE19=One step of a two step - Gary Buck
EXTD=
EXTT0=
EXTT1=
EXTT2=
EXTT3=
EXTT4=
EXTT5=
EXTT6=
EXTT7=
EXTT8=
EXTT9=
EXTT10=
EXTT11=
EXTT12=
EXTT13=
EXTT14=
EXTT15=
EXTT16=
EXTT17=
EXTT18=
EXTT19=
PLAYORDER=
